<?xml version="1.0" standalone="no"?>
<!DOCTYPE svg PUBLIC "-//W3C//DTD SVG 20010904//EN"
 "http://www.w3.org/TR/2001/REC-SVG-20010904/DTD/svg10.dtd">
<svg version="1.0" xmlns="http://www.w3.org/2000/svg"
 width="225.000000pt" height="225.000000pt" viewBox="0 0 225.000000 225.000000"
 preserveAspectRatio="xMidYMid meet">

<g transform="translate(0.000000,225.000000) scale(0.100000,-0.100000)"
fill="#000000" stroke="none">
<path d="M975 2239 c-227 -27 -473 -149 -644 -320 -438 -437 -438 -1151 0
-1588 437 -438 1151 -438 1588 0 438 437 438 1151 0 1588 -247 247 -586 362
-944 320z m384 -239 c510 -146 792 -664 634 -1164 -99 -314 -365 -554 -685
-620 -99 -21 -277 -21 -376 0 -280 57 -526 254 -648 520 -67 145 -97 341 -75
495 57 393 338 696 726 783 101 23 323 15 424 -14z"/>
<path d="M918 1839 c-25 -14 -22 -38 5 -48 l24 -9 6 -399 c9 -528 31 -981 49
-999 2 -1 56 5 122 14 117 16 119 17 167 60 30 27 61 68 81 109 28 58 33 79
36 163 9 213 -98 426 -266 530 -29 17 -52 35 -52 39 0 4 18 22 39 39 81 65
125 216 94 322 -9 30 -23 65 -31 78 -20 31 -89 70 -163 93 -69 21 -87 23 -111
8z m202 -98 c75 -59 86 -151 33 -272 -24 -56 -86 -128 -96 -112 -2 4 -8 102
-12 216 l-7 209 24 -7 c12 -4 39 -19 58 -34z m40 -560 c57 -31 130 -121 130
-160 0 -12 4 -21 9 -21 18 0 60 -107 71 -178 27 -174 -52 -314 -201 -356 -34
-9 -63 -15 -64 -14 -2 2 -8 82 -15 178 -6 96 -16 197 -21 224 -5 27 -9 127 -9
224 l0 175 33 -27 c17 -14 48 -35 67 -45z"/>
<path d="M1540 1793 c0 -10 17 -29 37 -43 20 -14 69 -57 109 -98 80 -80 134
-172 155 -267 7 -33 17 -55 26 -55 29 0 2 115 -49 212 -33 62 -123 161 -206
226 -59 46 -72 51 -72 25z"/>
<path d="M1317 462 c-21 -23 -21 -32 -3 -32 8 0 18 9 21 21 9 28 2 33 -18 11z"/>
</g>
</svg>
